<svg width="20" height="20" viewBox="0 0 20 20" fill="none" xmlns="http://www.w3.org/2000/svg">
<path d="M8.33317 4.99935H11.6665C11.6665 4.55732 11.4909 4.1334 11.1783 3.82084C10.8658 3.50828 10.4419 3.33268 9.99984 3.33268C9.55781 3.33268 9.13389 3.50828 8.82133 3.82084C8.50877 4.1334 8.33317 4.55732 8.33317 4.99935ZM6.6665 4.99935C6.6665 4.11529 7.01769 3.26745 7.64281 2.64233C8.26794 2.01721 9.11578 1.66602 9.99984 1.66602C10.8839 1.66602 11.7317 2.01721 12.3569 2.64233C12.982 3.26745 13.3332 4.11529 13.3332 4.99935H17.4998C17.7208 4.99935 17.9328 5.08715 18.0891 5.24343C18.2454 5.39971 18.3332 5.61167 18.3332 5.83268C18.3332 6.0537 18.2454 6.26566 18.0891 6.42194C17.9328 6.57822 17.7208 6.66602 17.4998 6.66602H16.7648L16.0265 15.2827C15.9555 16.1147 15.5748 16.8898 14.9597 17.4546C14.3446 18.0194 13.5399 18.3328 12.7048 18.3327H7.29484C6.45976 18.3328 5.65507 18.0194 5.03996 17.4546C4.42486 16.8898 4.04415 16.1147 3.97317 15.2827L3.23484 6.66602H2.49984C2.27882 6.66602 2.06686 6.57822 1.91058 6.42194C1.7543 6.26566 1.6665 6.0537 1.6665 5.83268C1.6665 5.61167 1.7543 5.39971 1.91058 5.24343C2.06686 5.08715 2.27882 4.99935 2.49984 4.99935H6.6665ZM12.4998 9.99935C12.4998 9.77833 12.412 9.56637 12.2558 9.41009C12.0995 9.25381 11.8875 9.16602 11.6665 9.16602C11.4455 9.16602 11.2335 9.25381 11.0772 9.41009C10.921 9.56637 10.8332 9.77833 10.8332 9.99935V13.3327C10.8332 13.5537 10.921 13.7657 11.0772 13.9219C11.2335 14.0782 11.4455 14.166 11.6665 14.166C11.8875 14.166 12.0995 14.0782 12.2558 13.9219C12.412 13.7657 12.4998 13.5537 12.4998 13.3327V9.99935ZM8.33317 9.16602C8.11216 9.16602 7.9002 9.25381 7.74392 9.41009C7.58763 9.56637 7.49984 9.77833 7.49984 9.99935V13.3327C7.49984 13.5537 7.58763 13.7657 7.74392 13.9219C7.9002 14.0782 8.11216 14.166 8.33317 14.166C8.55418 14.166 8.76615 14.0782 8.92243 13.9219C9.07871 13.7657 9.1665 13.5537 9.1665 13.3327V9.99935C9.1665 9.77833 9.07871 9.56637 8.92243 9.41009C8.76615 9.25381 8.55418 9.16602 8.33317 9.16602Z" fill="white"/>
</svg>
