<svg xmlns="http://www.w3.org/2000/svg" xmlns:xlink="http://www.w3.org/1999/xlink" width="200" zoomAndPan="magnify" viewBox="0 0 150 149.999998" height="200" preserveAspectRatio="xMidYMid meet" version="1.0"><defs><clipPath id="0269945780"><path d="M 1.839844 1.839844 L 148.089844 1.839844 L 148.089844 148.089844 L 1.839844 148.089844 Z M 1.839844 1.839844 " clip-rule="nonzero"/></clipPath></defs><g clip-path="url(#0269945780)"><path fill="#141414" d="M 75 148.160156 C 34.660156 148.160156 1.839844 115.339844 1.839844 75 C 1.839844 34.660156 34.660156 1.839844 75 1.839844 C 115.339844 1.839844 148.160156 34.660156 148.160156 75 C 148.160156 115.339844 115.339844 148.160156 75 148.160156 " fill-opacity="1" fill-rule="nonzero"/></g><path fill="#ffffff" d="M 76.523438 2.976562 C 37.648438 2.976562 6.023438 34.601562 6.023438 73.476562 C 6.023438 112.351562 37.648438 143.976562 76.523438 143.976562 C 115.398438 143.976562 147.023438 112.351562 147.023438 73.476562 C 147.023438 34.601562 115.398438 2.976562 76.523438 2.976562 " fill-opacity="1" fill-rule="nonzero"/><path fill="#957bff" d="M 76.523438 136.222656 C 41.914062 136.222656 13.777344 108.085938 13.777344 73.476562 C 13.777344 38.867188 41.914062 10.730469 76.523438 10.730469 C 111.132812 10.730469 139.265625 38.867188 139.265625 73.476562 C 139.265625 108.085938 111.132812 136.222656 76.523438 136.222656 Z M 76.523438 6.96875 C 39.847656 6.96875 10.011719 36.800781 10.011719 73.476562 C 10.011719 110.152344 39.847656 139.984375 76.523438 139.984375 C 113.195312 139.984375 143.03125 110.152344 143.03125 73.476562 C 143.03125 36.800781 113.195312 6.96875 76.523438 6.96875 " fill-opacity="1" fill-rule="nonzero"/><path fill="#957bff" d="M 108.066406 52.058594 L 67.0625 97.640625 C 66.699219 98.042969 66.195312 98.285156 65.671875 98.304688 C 65.652344 98.285156 65.632812 98.285156 65.589844 98.285156 C 65.085938 98.285156 64.621094 98.101562 64.238281 97.757812 L 45.101562 80.554688 C 44.273438 79.808594 44.214844 78.539062 44.957031 77.710938 C 45.707031 76.886719 46.976562 76.824219 47.800781 77.570312 L 65.429688 93.445312 L 105.082031 49.355469 C 105.828125 48.527344 107.097656 48.464844 107.925781 49.214844 C 108.753906 49.960938 108.8125 51.230469 108.066406 52.058594 Z M 76.523438 14.765625 C 44.152344 14.765625 17.8125 41.105469 17.8125 73.476562 C 17.8125 105.847656 44.152344 132.1875 76.523438 132.1875 C 108.894531 132.1875 135.234375 105.847656 135.234375 73.476562 C 135.234375 41.105469 108.894531 14.765625 76.523438 14.765625 " fill-opacity="1" fill-rule="nonzero"/></svg>