<svg width="20" height="20" viewBox="0 0 20 20" fill="none" xmlns="http://www.w3.org/2000/svg">
<path d="M10.1998 3.2793C13.7298 3.2793 16.6298 5.8893 17.1198 9.2793H19.1998L15.6998 13.2793L12.1998 9.2793H14.5198C14.2959 8.30049 13.7469 7.42647 12.9623 6.79988C12.1777 6.1733 11.2039 5.83116 10.1998 5.8293C8.7498 5.8293 7.4698 6.5393 6.6598 7.6093L4.9498 5.6593C5.60453 4.91111 6.41174 4.31164 7.31724 3.90115C8.22275 3.49065 9.2056 3.27862 10.1998 3.2793ZM9.7998 16.7193C6.2798 16.7193 3.3698 14.1093 2.8798 10.7193H0.799805L4.2998 6.7193C5.4698 8.0493 6.6298 9.3893 7.7998 10.7193H5.4798C5.70369 11.6981 6.25273 12.5721 7.03732 13.1987C7.82191 13.8253 8.79572 14.1674 9.7998 14.1693C11.2498 14.1693 12.5298 13.4593 13.3398 12.3893L15.0498 14.3393C14.3959 15.0885 13.5889 15.6887 12.6832 16.0992C11.7775 16.5098 10.7942 16.7213 9.7998 16.7193Z" fill="white"/>
</svg>
